# xmcd
#
# Track frame offsets:
#	150
#	11090
#	23388
#	36748
#	48905
#	58950
#	69660
#	83998
#	94828
#	108008
#	120230
#	134270
#	145988
#	159923
#	172235
#	182630
#	194298
#	204985
#	217980
#	230503
#	242483
#	253513
#	267053
#	279435
#
# Disc length: 3907 seconds
#
# Revision: 0
# Processed by: cddbd v1.5.1PL0 Copyright (c) Steve Scherf et al.
# Submitted via: dBpowerAMP V4.0
#
DISCID=4d0f4118
DTITLE=Various Artist - Defrost Your Heart: Sun Country Vol. 1
DYEAR=1900
DGENRE=Traditional Country
TTITLE0=Defrost Your Heart
TTITLE1=I've Been Decieved
TTITLE2=A Wedding Gown of White
TTITLE3=We're Getting Closer to Being Apart
TTITLE4=Peepin' Eyes
TTITLE5=Someday You Will Pay
TTITLE6=You Didn't Think I Would
TTITLE7=There's no Right Way to do me Wrong
TTITLE8=Finders Keepers
TTITLE9=My Isle of Golden Dreams
TTITLE10=Troublesome Waters
TTITLE11=Boogie Blues
TTITLE12=Rockin' Chair Daddy
TTITLE13=Easy to Love
TTITLE14=Mad at You
TTITLE15=Feelin' Low
TTITLE16=Split Personality
TTITLE17=Blues Waltz
TTITLE18=Roses And Sunshine
TTITLE19=Yackety Yak
TTITLE20=Trumpet
TTITLE21=Now She Cares no More For Me
TTITLE22=House of Sin
TTITLE23=Can't Find Time to Pray
EXTD=
EXTT0=
EXTT1=
EXTT2=
EXTT3=
EXTT4=
EXTT5=
EXTT6=
EXTT7=
EXTT8=
EXTT9=
EXTT10=
EXTT11=
EXTT12=
EXTT13=
EXTT14=
EXTT15=
EXTT16=
EXTT17=
EXTT18=
EXTT19=
EXTT20=
EXTT21=
EXTT22=
EXTT23=
PLAYORDER=
